<svg width="1024" height="1024" viewBox="0 0 1024 1024" fill="none" xmlns="http://www.w3.org/2000/svg">
<circle cx="512" cy="512" r="454" fill="white"/>
<path d="M966 512C966 762.738 762.738 966 512 966C261.262 966 58 762.738 58 512C58 261.262 261.262 58 512 58C762.738 58 966 261.262 966 512ZM706.687 447.323C715.725 386.914 669.725 354.438 606.826 332.774L627.23 250.941L577.413 238.527L557.548 318.204C544.452 314.94 531 311.863 517.635 308.813L537.642 228.612L487.852 216.199L467.435 298.003C456.594 295.534 445.952 293.093 435.624 290.527L435.68 290.27L366.976 273.117L353.724 326.319C353.724 326.319 390.687 334.79 389.907 335.313C410.084 340.35 413.731 353.7 413.12 364.283L389.878 457.509C391.269 457.864 393.07 458.375 395.057 459.169C393.396 458.758 391.622 458.304 389.792 457.864L357.213 588.459C354.744 594.588 348.487 603.781 334.383 600.292C334.88 601.015 298.173 591.254 298.173 591.254L273.441 648.273L338.272 664.432C350.332 667.455 362.153 670.618 373.786 673.597L353.17 756.365L402.93 768.779L423.347 686.889C436.544 690.465 449.778 693.899 463.049 697.19L442.701 778.696L492.518 791.109L513.135 708.496C598.084 724.571 661.965 718.087 688.851 641.262C710.519 579.404 687.773 543.723 643.078 520.456C675.627 512.954 700.146 491.546 706.687 447.323ZM592.863 606.917C577.468 668.775 473.307 635.334 439.538 626.95L466.895 517.296C500.663 525.723 608.953 542.407 592.863 606.917ZM608.272 446.43C594.225 502.697 507.53 474.109 479.407 467.102L504.209 367.648C532.333 374.656 622.9 387.736 608.272 446.43Z" fill="url(#paint0_linear)"/>
<defs>
<linearGradient id="paint0_linear" x1="512" y1="58" x2="512" y2="966" gradientUnits="userSpaceOnUse">
<stop stop-color="#FFB640"/>
<stop offset="0.484375" stop-color="#FFB040"/>
<stop offset="1" stop-color="#FFA440"/>
</linearGradient>
</defs>
</svg>
