<svg width="128" height="128" viewBox="0 0 128 128" fill="none" xmlns="http://www.w3.org/2000/svg">
<path d="M60.2337 16.9878L52.5443 14L51.1909 14.9959C58.0192 26.713 54.5128 32.5715 51.1909 34.8564C43.5714 39.2358 36.349 44.2133 29.5989 49.737C25.381 53.4833 22.1559 58.1286 20.1884 63.2919C18.2208 68.4552 17.5668 73.9891 18.28 79.4397C18.9999 86.7774 21.9918 93.746 26.8764 99.4618C31.761 105.178 38.3181 109.383 45.716 111.544C52.0637 113.413 58.702 114.225 65.3395 113.946C76.4279 114.345 87.3118 111.028 96.0974 104.573C100.44 101.132 103.936 96.8246 106.339 91.9553C108.741 87.0859 109.991 81.7734 110 76.3933C109.931 71.0601 108.703 65.7983 106.395 60.9387C104.088 56.0791 100.749 51.7267 96.5896 48.1552C91.685 44.2587 86.3656 40.8618 80.7185 38.02C77.753 36.5692 75.3735 34.2264 73.9496 31.3555C72.5258 28.4845 72.1373 25.2462 72.8445 22.1434L67.8617 20.1515L60.2337 16.9878ZM50.0836 109.787C47.4475 109.286 44.8858 108.479 42.4557 107.385C36.7329 104.93 31.7915 101.081 28.13 96.2255C24.4686 91.3705 22.2168 85.6814 21.6018 79.7327C20.5561 59.5793 30.6447 53.6622 40.0566 46.2805C45.2854 42.1795 52.3597 40.422 56.8504 32.8059C57.8291 29.9107 57.8291 26.7961 56.8504 23.9009C56.0326 21.565 54.982 19.309 53.7131 17.1636L65.4011 22.0262C64.9289 26.5031 65.136 31.0215 66.0162 35.4422C67.2465 39.6603 72.9675 45.8118 75.3666 53.0178C79.847 67.6723 79.847 83.2396 75.3666 97.8941C74.6257 100.702 73.1434 103.284 71.0605 105.393C68.1 107.511 64.683 108.978 61.0557 109.687C57.4283 110.396 53.681 110.33 50.0836 109.494V109.787Z" fill="#010101"/>
</svg>
