<svg width="128" height="128" viewBox="0 0 128 128" fill="none" xmlns="http://www.w3.org/2000/svg">
<path d="M93.259 65.0689C89.2161 61.3745 84.103 58.3952 78.871 55.4158C76.4928 54.1049 69.2393 48.3846 71.7364 40.2808L67.2178 38.374C74.3524 27.2908 83.6274 16.3268 95.0427 6.07787C85.8866 9.17639 77.8008 13.9433 71.7364 22.4047C75.3037 14.8967 81.1303 7.50795 87.5514 0C78.7521 6.31621 71.1419 13.4666 66.3855 23.0006L69.7149 9.65308C64.9586 18.2336 61.6291 26.9333 60.3211 35.633L53.3054 32.7728L52.1163 33.7262C58.2996 44.8094 55.0891 50.6489 51.9974 52.6748C45.8141 56.8459 36.8959 62.2087 32.3773 66.8565C23.8158 75.6754 21.3187 84.0175 22.1511 95.1007C22.9835 109.282 33.3286 121.081 47.0032 125.728C53.0676 127.754 58.6563 127.993 64.8396 127.993C74.8281 127.993 85.0543 125.371 92.5456 119.055C100.513 112.5 105.15 102.49 105.15 92.2406C105.15 81.8724 100.869 71.981 93.259 65.0689ZM44.1494 121.438C33.0908 116.075 25.7184 104.515 25.2428 95.1007C24.2915 75.9137 33.4475 70.3126 42.009 63.2813C46.7654 59.3486 53.4243 57.4418 57.2294 50.4105C57.9429 48.8613 58.4185 45.5244 57.4673 41.9492C57.1105 40.7574 55.3269 36.4672 54.6134 35.5138L65.1964 40.1616C64.9586 45.1669 64.8396 49.2188 65.7909 52.9132C66.8611 56.9651 72.0931 62.8046 74.2335 69.5975C78.3953 82.4683 77.3252 99.2718 74.3524 112.381C73.8768 114.526 72.331 117.148 70.4284 119.531C71.1419 118.22 71.7364 116.91 72.0931 115.479C75.0659 104.873 76.3739 99.9868 74.947 88.3078C74.7091 87.1161 74.2335 83.3025 72.4499 79.1314C69.9528 72.8152 66.1477 66.8565 65.672 65.5456C64.8396 63.5197 63.6506 54.9391 63.5316 49.0996C63.6506 54.1049 64.0073 63.2813 65.3153 66.8565C65.672 68.0483 69.1204 73.4111 71.6175 79.9656C73.2822 84.4942 73.639 88.6653 73.9957 89.8571C75.1848 95.2199 73.7579 104.277 71.8553 112.858C71.2608 115.956 69.596 119.531 67.4557 122.272C68.6448 120.604 69.596 118.459 70.3095 115.956C71.7364 110.951 72.331 104.515 72.212 100.464C72.0931 98.0801 71.0229 92.9556 69.2393 88.3078C68.1691 85.8052 66.6233 83.1833 65.5531 81.3957C64.364 79.6081 64.364 75.6754 63.8884 71.1468C64.0073 76.0329 63.5316 78.5356 64.7207 81.9916C65.4342 84.0175 68.0502 86.8777 68.7637 89.6187C69.8338 93.3131 70.904 97.365 70.7851 99.8677C70.7851 102.728 70.6662 107.971 69.3582 113.692C68.5258 117.982 66.6233 121.676 63.5316 124.06C64.8396 122.392 65.5531 120.723 65.9098 119.055C66.3855 116.552 66.5044 114.169 66.7422 111.189C66.98 108.687 66.8611 105.469 66.1477 102.013C65.1964 97.7225 63.6506 93.4323 62.9371 90.4529C63.056 93.7898 64.364 97.9609 64.9586 102.37C65.4342 105.588 65.1964 108.806 65.0775 111.666C64.9586 115.003 63.8884 120.842 62.4615 123.702C61.0345 123.107 60.5589 122.272 59.6076 121.081C58.4185 119.531 57.7051 117.863 56.9916 115.956C56.3971 114.526 55.8025 112.858 55.4458 111.07C55.0891 108.21 55.208 103.8 58.4185 99.2718C60.9156 95.6966 61.3913 95.4582 62.2236 91.2872C61.0345 94.9815 60.2022 95.3391 57.5862 98.4376C54.6134 101.894 54.1378 106.899 54.1378 110.951C54.1378 112.619 54.8512 114.526 55.4458 116.314C56.1592 118.22 56.8727 120.127 57.824 121.557C58.5374 122.749 59.4887 123.583 60.3211 124.179C57.2294 123.345 54.0189 122.153 51.9974 120.485C47.0032 116.194 42.6036 108.925 42.009 102.489C41.5334 97.2459 46.2898 89.6187 53.0676 85.8052C58.7753 82.4683 60.0833 78.7739 61.2724 72.696C59.6076 77.9397 57.9429 82.4683 52.473 85.2093C44.625 89.4996 40.5821 96.4116 40.9388 103.085C41.5334 111.547 44.8628 117.386 51.6407 122.034C53.1865 123.107 55.3269 124.179 57.5862 125.013C49.1436 122.987 48.0734 121.796 45.2196 118.459C45.2196 118.22 44.5061 117.744 44.5061 117.625C40.701 113.334 35.9446 105.946 34.2799 99.1526C33.6853 96.7692 33.0908 94.2665 33.8042 91.883C36.8959 80.6807 43.6737 76.3904 50.4516 71.7426C52.1163 70.5509 53.7811 69.4783 55.3269 68.2866C59.132 65.3073 60.0833 57.561 60.9156 53.1515C59.3698 58.5144 57.7051 65.1881 54.7323 67.3332C53.1865 68.525 51.284 69.4783 49.7381 70.5509C42.7225 75.3179 35.7068 79.8465 32.4962 91.4063C31.7828 94.3857 32.2584 96.5308 32.9719 99.391C34.7555 106.422 39.5119 114.049 43.5548 118.578L44.2683 119.293C46.0519 121.319 48.3112 122.868 51.0461 123.941C48.549 123.345 46.2898 122.511 44.1494 121.438Z" fill="#737373"/>
<path d="M26.9228 48.1508L100.765 121.993Z" fill="black"/>
<path d="M26.9228 48.1508L100.765 121.993" stroke="black" stroke-width="11.5" stroke-linecap="round"/>
<path d="M100.765 48.1508L26.9228 121.993Z" fill="black"/>
<path d="M100.765 48.1508L26.9228 121.993" stroke="black" stroke-width="11.5" stroke-linecap="round"/>
</svg>
