<svg width="128" height="128" viewBox="0 0 128 128" fill="none" xmlns="http://www.w3.org/2000/svg">
<path d="M59.7442 58.0999C59.5317 59.121 59.2876 60.1648 58.9955 61.1865C58.1804 64.0384 57.0089 66.6514 55.1733 68.0891C54.207 68.834 53.2006 69.5275 52.1707 70.2373C51.557 70.6603 50.9349 71.089 50.308 71.5377C50.059 71.7085 49.8099 71.8788 49.5608 72.0491C43.0347 76.5113 36.5675 80.9333 33.5638 91.8138C32.8289 94.2724 33.4456 96.8414 34.0371 99.2125C35.7098 106.038 40.4695 113.438 44.2854 117.752C44.2878 117.757 44.29 117.762 44.292 117.766C44.307 117.795 44.3248 117.82 44.3398 117.839C44.3698 117.877 44.4073 117.916 44.443 117.951C44.4901 117.997 44.55 118.051 44.6092 118.104C44.638 118.13 44.6666 118.156 44.6936 118.181C44.7821 118.262 44.8606 118.338 44.9161 118.405C44.9437 118.438 44.9603 118.462 44.9689 118.478C44.9691 118.479 44.9693 118.479 44.9694 118.479V118.551L45.0295 118.621C46.4546 120.288 47.4606 121.452 49.1821 122.444C50.8954 123.432 53.3042 124.243 57.5277 125.256L57.6726 124.779C55.4279 123.95 53.3075 122.886 51.7831 121.828L51.7819 121.828C48.4184 119.521 45.9203 116.926 44.1885 113.866C42.4567 110.807 41.4836 107.27 41.1882 103.07C40.8387 96.5137 44.8098 89.6848 52.5889 85.4306C56.4254 83.5069 58.4203 80.7134 59.8346 77.4468C59.506 78.4195 59.1218 79.3159 58.6468 80.1551C57.4837 82.2097 55.7654 83.9379 52.9428 85.5883C49.5165 87.5166 46.605 90.4056 44.6086 93.4746C42.6153 96.5387 41.5151 99.8129 41.7599 102.512L41.7599 102.512C42.3618 109.026 46.8027 116.352 51.8344 120.674L51.8382 120.677C53.9036 122.382 57.1592 123.585 60.2558 124.42L60.4665 123.976C59.6499 123.391 58.7279 122.581 58.0384 121.429L58.0386 121.429L58.032 121.419C57.1006 120.018 56.3973 118.144 55.6814 116.23C55.6159 116.033 55.5493 115.836 55.4826 115.638C54.9373 114.02 54.3877 112.39 54.3877 110.951C54.3877 106.902 54.8673 101.982 57.7756 98.6005L57.7771 98.5987C58.2848 97.9973 58.7299 97.4945 59.125 97.0481C59.7337 96.3605 60.2238 95.8067 60.6419 95.2329C60.809 95.0036 60.9654 94.7702 61.1149 94.5226C60.9954 94.83 60.867 95.1117 60.7235 95.3873C60.3314 96.1405 59.8276 96.8494 59.0733 97.9108C58.8174 98.2708 58.5328 98.6713 58.2138 99.1279C58.2137 99.1281 58.2136 99.1283 58.2135 99.1285L58.4184 99.2716M59.7442 58.0999L56.7589 116.048M59.7442 58.0999C59.3847 59.2795 59.0044 60.4434 58.5929 61.5369C57.6127 64.1419 56.4332 66.4119 54.8817 67.5334C54.0974 68.1378 53.2257 68.6796 52.3645 69.2005C52.2331 69.28 52.102 69.3589 51.9715 69.4375C51.2413 69.8772 50.5292 70.3061 49.8805 70.7561L49.8785 70.7575C49.7115 70.871 49.5445 70.9844 49.3776 71.0976C42.5353 75.7413 35.8469 80.2807 32.7382 91.4688C32.0414 94.3825 32.5022 96.4755 33.2143 99.3301C34.9851 106.31 39.714 113.899 43.7365 118.406L44.4451 119.116L44.4507 119.122L44.4558 119.128C46.2109 121.121 48.4361 122.649 51.1373 123.708L50.988 124.184C48.4727 123.584 46.1957 122.743 44.0385 121.662C32.9063 116.263 25.4736 104.627 24.9929 95.1132L24.9929 95.1129C24.515 85.4739 26.5763 79.2202 29.853 74.4901C32.5922 70.5358 36.1777 67.6562 39.7781 64.7646C40.47 64.2089 41.1624 63.6528 41.8496 63.0885C43.0521 62.0942 44.3719 61.2304 45.7265 60.3875C46.0926 60.1596 46.4609 59.9336 46.8302 59.7069C47.8315 59.0922 48.8406 58.4727 49.8359 57.8005C52.5516 55.9663 55.13 53.7609 57.0056 50.2985C57.689 48.8072 58.1624 45.5379 57.2266 42.0172M59.7442 58.0999L63.2941 91.8226M58.4184 99.2716C55.2079 103.8 55.0889 108.21 55.4457 111.07C55.8024 112.857 56.3969 114.526 56.9915 115.956M58.4184 99.2716C58.732 98.8226 59.0137 98.4263 59.2683 98.0681C60.6856 96.074 61.2605 95.2651 61.8062 93.1558L58.4184 99.2716ZM56.9915 115.956L56.7574 116.044C56.7579 116.045 56.7584 116.046 56.7589 116.048M56.9915 115.956L56.7607 116.052C56.7601 116.051 56.7595 116.049 56.7589 116.048M56.9915 115.956C57.705 117.863 58.4184 119.531 59.6075 121.08C59.7495 121.258 59.8808 121.428 60.0063 121.59C60.7219 122.516 61.2473 123.195 62.4613 123.702C63.8883 120.842 64.9584 115.003 65.0774 111.666C65.0923 111.307 65.1091 110.942 65.1261 110.572C65.2447 107.998 65.3744 105.184 64.9584 102.37M56.7589 116.048C57.4736 117.957 58.1973 119.654 59.4092 121.233L59.4121 121.236C59.55 121.409 59.6788 121.576 59.8031 121.737C60.5203 122.666 61.0864 123.399 62.365 123.933L62.5807 124.023L62.685 123.814C63.4132 122.354 64.0426 120.154 64.5047 117.913C64.9674 115.669 65.267 113.361 65.3272 111.675M64.9584 102.37L65.2062 102.337C65.2061 102.336 65.2061 102.336 65.206 102.335M64.9584 102.37L65.2057 102.334C65.2058 102.334 65.2059 102.335 65.206 102.335M64.9584 102.37C64.7032 100.477 64.3164 98.6279 63.9487 96.8699C63.5774 95.0944 63.2254 93.4118 63.048 91.8706C63.2054 92.4387 63.3809 93.0387 63.5673 93.6638M65.206 102.335C65.6254 105.174 65.4945 108.013 65.3758 110.586C65.3588 110.955 65.342 111.318 65.3272 111.675M65.206 102.335C64.9494 100.433 64.5607 98.5746 64.1932 96.8174C64.1327 96.5283 64.0728 96.242 64.0142 95.9586C63.8507 95.1685 63.6971 94.4025 63.5673 93.6638M65.3272 111.675C65.3272 111.675 65.3272 111.675 65.3272 111.675L65.078 111.666L65.3271 111.676C65.3271 111.676 65.3272 111.676 65.3272 111.675ZM63.5673 93.6638C63.4557 93.0291 63.3618 92.4146 63.2941 91.8226M63.5673 93.6638C63.689 94.0722 63.8154 94.4913 63.9445 94.9191C64.0332 95.2132 64.1231 95.5113 64.2136 95.813C64.8079 97.7932 65.4297 99.9302 65.9031 102.065M63.2941 91.8226C63.5521 92.7523 63.8589 93.7694 64.1834 94.8453C64.8535 97.0671 65.5992 99.5399 66.1475 102.013M63.2941 91.8226L65.9097 119.055M65.9031 102.065C66.6114 105.497 66.7285 108.689 66.4932 111.165L66.4929 111.169C66.451 111.694 66.4128 112.2 66.3757 112.691C66.202 114.992 66.0536 116.957 65.6646 119.005M65.9031 102.065C65.9032 102.066 65.9033 102.066 65.9035 102.067L66.1475 102.013M65.9031 102.065C65.903 102.065 65.9028 102.064 65.9027 102.063L66.1475 102.013M65.6646 119.005C65.3154 120.637 64.6178 122.269 63.3348 123.906L63.6842 124.258C66.8363 121.828 68.762 118.073 69.6027 113.743M65.6646 119.005C65.6645 119.006 65.6643 119.007 65.6641 119.008L65.9097 119.055M65.6646 119.005C65.6648 119.004 65.665 119.003 65.6652 119.002L65.9097 119.055M69.6027 113.743C70.9152 108.001 71.0348 102.741 71.035 99.8734M69.6027 113.743C69.603 113.742 69.6033 113.741 69.6035 113.739L69.3581 113.692M69.6027 113.743C69.6024 113.745 69.6021 113.746 69.6018 113.747L69.3581 113.692M71.035 99.8734C71.095 98.589 70.8514 96.9264 70.4645 95.1371C70.0764 93.3417 69.5397 91.3996 69.0046 89.5523M71.035 99.8734C71.035 99.8714 71.035 99.8695 71.035 99.8675H70.785M71.035 99.8734C71.0349 99.8754 71.0348 99.8774 71.0347 99.8794L70.785 99.8675M69.0046 89.5523C68.6363 88.14 67.7834 86.7104 66.9531 85.4028C66.8319 85.2119 66.7114 85.0238 66.5929 84.8389C65.8868 83.7373 65.2518 82.7466 64.9567 81.9093M69.0046 89.5523C69.0043 89.5512 69.004 89.5501 69.0037 89.549L68.7635 89.6186M69.0046 89.5523C69.0049 89.5534 69.0052 89.5545 69.0055 89.5556L68.7635 89.6186M64.9567 81.9093C64.3731 80.2127 64.1972 78.7501 64.153 77.0986C64.1504 77.0006 64.1483 76.9019 64.1465 76.8025M64.9567 81.9093C64.9566 81.909 64.9565 81.9087 64.9564 81.9084L64.7206 81.9914M64.9567 81.9093C64.9568 81.9095 64.9569 81.9098 64.957 81.9101L64.7206 81.9914M64.1465 76.8025C64.1652 76.9807 64.1846 77.156 64.2048 77.3281C64.412 79.0936 64.712 80.579 65.3415 81.529M64.1465 76.8025C64.1346 76.1272 64.1415 75.4183 64.1491 74.6451C64.1498 74.5703 64.1505 74.4949 64.1512 74.4188C64.1523 74.3056 64.1534 74.191 64.1544 74.0749C64.1594 74.1355 64.1643 74.1958 64.1693 74.256C64.4312 77.4246 64.6467 80.0331 65.553 81.3956M64.1465 76.8025C64.0683 76.0576 64.0016 75.2611 63.9327 74.4277L63.9202 74.2768C63.9149 74.2128 63.9096 74.1486 63.9043 74.0842C63.9027 74.2743 63.9008 74.4607 63.8991 74.6437C63.8717 77.4512 63.8521 79.467 64.7206 81.9914M65.3415 81.529C66.4114 83.3163 67.9459 85.9202 69.0075 88.4016M65.3415 81.529C65.3426 81.5307 65.3437 81.5323 65.3448 81.534L65.553 81.3956M65.3415 81.529C65.3405 81.5273 65.3395 81.5257 65.3385 81.524L65.553 81.3956M69.0075 88.4016C70.7828 93.0292 71.8443 98.1227 71.9621 100.473M69.0075 88.4016C69.0081 88.4031 69.0087 88.4045 69.0093 88.4059L69.2392 88.3077M69.0075 88.4016C69.0069 88.4002 69.0064 88.3987 69.0058 88.3972L69.2392 88.3077M71.9621 100.473C72.0801 104.504 71.4876 110.911 70.069 115.887C69.3607 118.372 68.4198 120.488 67.252 122.127L67.6526 122.426C69.8143 119.658 71.4968 116.048 72.1001 112.908M71.9621 100.473C71.9622 100.474 71.9622 100.475 71.9622 100.476L72.2119 100.463M71.9621 100.473C71.9621 100.472 71.9621 100.472 71.962 100.471L72.2119 100.463M72.1001 112.908C73.0519 108.615 73.886 104.197 74.3332 100.178C74.7799 96.1637 74.8433 92.5254 74.2396 89.8028L74.2377 89.7939L74.2351 89.7852C74.1511 89.5047 74.0644 89.0372 73.9539 88.4025C73.9353 88.296 73.9161 88.1851 73.8963 88.0701C73.799 87.5077 73.6848 86.8471 73.5424 86.1148C73.1992 84.35 72.6907 82.1608 71.852 79.8792L71.851 79.8765C70.5972 76.5855 69.1056 73.596 67.8847 71.2832C67.504 70.562 67.1479 69.9032 66.8342 69.3231C66.6461 68.9753 66.4734 68.6557 66.3198 68.368C65.9021 67.5854 65.6349 67.0528 65.5547 66.7847L65.5525 66.7775L65.55 66.7705C65.1435 65.6596 64.828 63.9835 64.5831 62.0458M72.1001 112.908C72.1003 112.907 72.1005 112.906 72.1007 112.905L71.8553 112.857L72.0993 112.912C72.0995 112.91 72.0998 112.909 72.1001 112.908ZM64.5831 62.0458C64.641 62.3757 64.6993 62.6913 64.7577 62.9901C64.9873 64.167 65.2208 65.1031 65.4387 65.6357M64.5831 62.0458C64.4111 61.0655 64.2424 59.9584 64.0863 58.7855C64.0113 58.2215 63.9391 57.6419 63.8709 57.0535L71.2809 118.413M64.5831 62.0458C64.4421 60.9295 64.3246 59.7264 64.2267 58.4944C64.1881 58.009 64.1526 57.5199 64.1199 57.0307C64.5663 60.8774 65.1811 64.3509 65.6719 65.5454M65.4387 65.6357C65.5672 65.9871 65.9051 66.6234 66.3614 67.4535C66.5164 67.7355 66.6861 68.0416 66.868 68.3698C67.2309 69.0246 67.6425 69.7671 68.0829 70.5804C69.4042 73.0205 70.9742 76.0789 72.2173 79.2232L72.2172 79.2232L72.2199 79.2296C73.7276 82.7554 74.2923 86.0184 74.5756 87.6557C74.6242 87.9362 74.6645 88.1689 74.6998 88.3472M65.4387 65.6357C65.4381 65.634 65.4375 65.6324 65.4369 65.6307L65.6719 65.5454M65.4387 65.6357C65.4393 65.6373 65.44 65.6389 65.4407 65.6404L65.6719 65.5454M74.6998 88.3472C75.4104 94.1674 75.4384 98.2846 74.9219 102.263C74.4044 106.25 73.3397 110.105 71.8523 115.412L71.8522 115.412L71.8504 115.419C71.5008 116.82 70.9169 118.11 70.2087 119.412L70.6237 119.687C72.5343 117.294 74.1082 114.636 74.5963 112.435M74.6998 88.3472C74.6994 88.3441 74.6991 88.341 74.6987 88.338L74.9468 88.3077M74.6998 88.3472C74.7004 88.3503 74.7011 88.3535 74.7017 88.3566L74.9468 88.3077M74.5963 112.435C77.5736 99.3054 78.6525 82.452 74.4715 69.5211M74.5963 112.435C74.5963 112.435 74.5964 112.435 74.5964 112.435L74.353 112.381L74.5961 112.436C74.5962 112.436 74.5962 112.435 74.5963 112.435ZM74.4715 69.5211C73.3912 66.0931 71.5333 62.9122 69.8245 60.0976C69.6717 59.846 69.5202 59.5974 69.3706 59.3519C68.6809 58.2203 68.0309 57.1538 67.4794 56.1534C66.808 54.9355 66.2924 53.8326 66.0327 52.8501M74.4715 69.5211C74.4714 69.5209 74.4713 69.5207 74.4713 69.5204L74.2339 69.5972L74.4718 69.5222C74.4717 69.5219 74.4716 69.5215 74.4715 69.5211ZM66.0327 52.8501C65.0926 49.1983 65.2079 45.1843 65.446 40.1733L65.4541 40.0016L65.2968 39.9325L54.7138 35.2847L53.8438 34.9027L54.4131 35.6634C54.5759 35.8809 54.8121 36.3082 55.0857 36.8642C55.3565 37.4142 55.6557 38.0731 55.9445 38.7412C56.5228 40.0786 57.0517 41.4346 57.2266 42.0172M66.0327 52.8501C66.0327 52.8498 66.0326 52.8495 66.0325 52.8492L65.7908 52.913M66.0327 52.8501C66.0328 52.8503 66.0329 52.8505 66.0329 52.8507L65.7908 52.913M57.2266 42.0172C57.2269 42.0183 57.2273 42.0195 57.2276 42.0207L57.4671 41.949L57.2255 42.0133C57.2259 42.0146 57.2262 42.0159 57.2266 42.0172ZM65.7908 52.913C66.2783 54.7586 67.6292 56.9751 69.1581 59.4836C70.9858 62.4824 73.0679 65.8986 74.2334 69.5974C78.3952 82.4681 77.325 99.2716 74.3523 112.381C73.9501 114.195 72.7824 116.35 71.2809 118.413M65.7908 52.913C64.8395 49.2186 64.9584 45.1667 65.1963 40.1614L55.0318 35.6974C54.9531 35.5652 54.8798 35.4524 54.8135 35.3639L54.6133 35.5136L54.5128 35.7425L54.8572 35.8938C55.6696 37.2949 57.1461 40.8766 57.4671 41.949C58.4184 45.5242 57.9428 48.8611 57.2293 50.4104C54.631 55.2116 50.7021 57.6234 46.9569 59.9225C45.2173 60.9903 43.5174 62.0338 42.0089 63.2811C41.3172 63.8492 40.6216 64.4079 39.9278 64.9652C32.0339 71.3061 24.3682 77.4637 25.2426 95.1006L71.2809 118.413M71.2809 118.413C71.0834 118.829 70.8711 119.241 70.6479 119.651L70.4283 119.531L70.2329 119.375C70.5197 119.016 70.7979 118.652 71.065 118.285C71.4936 117.38 71.849 116.458 72.093 115.479C75.0658 104.873 76.3738 99.9867 74.9468 88.3077M65.9097 119.055C66.302 116.991 66.4516 115.008 66.6254 112.705C66.6623 112.216 66.7004 111.711 66.7421 111.189C66.9799 108.686 66.861 105.469 66.1475 102.013M72.2119 100.463C72.093 98.0799 71.0228 92.9554 69.2392 88.3077M72.2119 100.463L69.3581 113.692M69.2392 88.3077C68.169 85.805 66.6232 83.1832 65.553 81.3956M64.7206 81.9914C65.0261 82.859 65.6805 83.8795 66.385 84.9781C67.3256 86.4451 68.3556 88.0513 68.7635 89.6186M68.7635 89.6186C69.8337 93.3129 70.9039 97.3649 70.785 99.8675M70.785 99.8675C70.785 102.728 70.6661 107.971 69.3581 113.692M65.6719 65.5454C65.8304 65.9824 66.3589 66.9358 67.0856 68.2467C68.5389 70.8686 70.785 74.9205 72.4497 79.1313C73.9704 82.6874 74.5404 85.9837 74.8227 87.6169C74.8716 87.8993 74.9118 88.132 74.9468 88.3077M59.6669 123.997C59.8396 124.136 60.01 124.264 60.1754 124.382L60.321 124.179L60.3861 123.938C60.1857 123.884 59.9849 123.828 59.7841 123.771C59.0995 123.217 58.3875 122.499 57.8239 121.557C56.8726 120.127 56.1591 118.22 55.4457 116.313C55.3799 116.116 55.3127 115.917 55.2452 115.717C54.7021 114.107 54.1377 112.435 54.1377 110.951C54.1377 106.899 54.6133 101.893 57.586 98.4374L59.6669 123.997ZM59.6669 123.997C56.7833 123.175 53.8765 122.036 51.9973 120.485C47.0031 116.194 42.6034 108.925 42.0089 102.489L59.6669 123.997ZM93.0903 65.2533L93.0908 65.2538C100.647 72.1172 104.9 81.9408 104.9 92.2404C104.9 102.416 100.295 112.355 92.3866 118.861L92.3843 118.863C84.9518 125.13 74.7897 127.743 64.8395 127.743C58.6616 127.743 53.1066 127.504 47.0824 125.491C33.4883 120.87 23.226 109.149 22.4006 95.0859L22.4003 95.0818C21.9859 89.5639 22.4014 84.7437 23.9775 80.2115C25.5535 75.6797 28.2954 71.4198 32.5565 67.0306C34.797 64.7261 38.1381 62.2353 41.7042 59.793C43.7311 58.4049 45.8146 57.043 47.8055 55.7415C49.3249 54.7483 50.7904 53.7903 52.1357 52.8828C53.7405 51.8307 55.3567 49.801 55.7826 46.6301C56.2035 43.4968 55.4599 39.2711 52.4371 33.7892L53.347 33.0596L60.2266 35.8643L60.5209 35.9843L60.5682 35.67C61.7831 27.5896 64.7505 19.502 68.9958 11.5024L66.1428 22.9399L66.6091 23.112C71.0302 14.2501 77.9346 7.44981 85.9894 1.45107C80.1129 8.40931 74.8364 15.2972 71.5105 22.2972L71.9395 22.5502C77.7075 14.5024 85.3174 9.81335 93.9603 6.71914C82.9476 16.744 73.963 27.4335 67.0075 38.2385L66.8466 38.4885L67.1205 38.6041L71.4327 40.4238C70.263 44.4753 71.473 47.9333 73.2696 50.5374C75.093 53.1806 77.5313 54.9624 78.7486 55.6337C83.9836 58.6148 89.0716 61.5811 93.0903 65.2533Z" stroke="black" stroke-width="0.5"/>
</svg>
