<svg width="128" height="128" viewBox="0 0 128 128" fill="none" xmlns="http://www.w3.org/2000/svg">
<path d="M95.2631 65.0726C91.22 61.378 86.1065 58.3985 80.8742 55.419C78.4959 54.108 71.242 48.3873 73.7392 40.2831L69.2204 38.3762C76.3554 27.2924 85.6309 16.3277 97.0469 6.07821C87.8903 9.17691 79.804 13.9441 73.7392 22.406C77.3067 14.8976 83.1336 7.50838 89.5551 0C80.7553 6.31657 73.1447 13.4674 68.388 23.0019L71.7177 9.65363C66.961 18.2346 63.6313 26.9348 62.3233 35.635L55.3072 32.7747L54.118 33.7281C60.3017 44.8119 57.0909 50.6518 53.9991 52.6778C47.8155 56.8492 38.8967 62.2123 34.3779 66.8603C25.8159 75.6797 23.3187 84.0223 24.1511 95.1061C24.9835 109.289 35.3293 121.088 49.0046 125.736C55.0694 127.762 60.6584 128 66.8421 128C76.8311 128 87.0579 125.378 94.5496 119.061C102.517 112.507 107.155 102.495 107.155 92.2458C107.155 81.8771 102.874 71.9851 95.2631 65.0726ZM46.1506 121.445C35.0914 116.082 27.7186 104.521 27.2429 95.1061C26.2916 75.9181 35.4482 70.3166 44.0101 63.2849C48.7668 59.352 55.4261 57.4451 59.2314 50.4134C59.9449 48.8641 60.4206 45.527 59.4693 41.9516C59.1125 40.7598 57.3288 36.4693 56.6153 35.5158L67.1988 40.1639C66.961 45.1695 66.8421 49.2216 67.7934 52.9162C68.8637 56.9683 74.096 62.8082 76.2365 69.6015C80.3986 82.473 79.3283 99.2775 76.3554 112.387C75.8797 114.533 74.3338 117.155 72.4312 119.538C73.1447 118.227 73.7392 116.916 74.096 115.486C77.0689 104.879 78.377 99.9925 76.95 88.3128C76.7122 87.121 76.2365 83.3073 74.4527 79.1359C71.9555 72.8194 68.1502 66.8603 67.6745 65.5493C66.8421 63.5233 65.6529 54.9423 65.534 49.1024C65.6529 54.108 66.0097 63.2849 67.3178 66.8603C67.6745 68.0521 71.1231 73.4153 73.6203 79.9702C75.2852 84.4991 75.6419 88.6704 75.9987 89.8622C77.1878 95.2253 75.7608 104.283 73.8582 112.864C73.2636 115.963 71.5987 119.538 69.4583 122.279C70.6474 120.611 71.5987 118.466 72.3122 115.963C73.7392 110.957 74.3338 104.521 74.2149 100.469C74.096 98.0857 73.0257 92.9609 71.242 88.3128C70.1718 85.8101 68.6258 83.1881 67.5556 81.4004C66.3664 79.6127 66.3664 75.6797 65.8908 71.1508C66.0097 76.0372 65.534 78.54 66.7232 81.9963C67.4367 84.0223 70.0528 86.8827 70.7663 89.6238C71.8366 93.3184 72.9068 97.3706 72.7879 99.8734C72.7879 102.734 72.669 107.978 71.3609 113.698C70.5285 117.989 68.6258 121.683 65.534 124.067C66.8421 122.399 67.5556 120.73 67.9123 119.061C68.388 116.559 68.5069 114.175 68.7448 111.196C68.9826 108.693 68.8637 105.475 68.1502 102.019C67.1988 97.7281 65.6529 93.4376 64.9394 90.4581C65.0583 93.7952 66.3664 97.9665 66.961 102.376C67.4367 105.594 67.1988 108.812 67.0799 111.672C66.961 115.009 65.8908 120.849 64.4638 123.709C63.0368 123.114 62.5611 122.279 61.6098 121.088C60.4206 119.538 59.7071 117.87 58.9936 115.963C58.399 114.533 57.8044 112.864 57.4477 111.076C57.0909 108.216 57.2099 103.806 60.4206 99.2775C62.9179 95.702 63.3935 95.4637 64.2259 91.2924C63.0368 94.987 62.2044 95.3445 59.5882 98.4432C56.6153 101.899 56.1396 106.905 56.1396 110.957C56.1396 112.626 56.8531 114.533 57.4477 116.32C58.1612 118.227 58.8747 120.134 59.826 121.564C60.5395 122.756 61.4909 123.59 62.3233 124.186C59.2314 123.352 56.0207 122.16 53.9991 120.492C49.0046 116.201 44.6047 108.931 44.0101 102.495C43.5345 97.2514 48.2911 89.6238 55.0694 85.8101C60.7774 82.473 62.0854 78.7784 63.2746 72.7002C61.6098 77.9441 59.9449 82.473 54.4748 85.2142C46.6263 89.5047 42.5831 96.4171 42.9399 103.091C43.5345 111.553 46.8641 117.393 53.6424 122.041C55.1883 123.114 57.3288 124.186 59.5882 125.02C51.1451 122.994 50.0749 121.803 47.2209 118.466C47.2209 118.227 46.5074 117.75 46.5074 117.631C42.7021 113.341 37.9454 105.952 36.2806 99.1583C35.686 96.7747 35.0914 94.2719 35.8049 91.8883C38.8967 80.6853 45.675 76.3948 52.4532 71.7467C54.118 70.5549 55.7829 69.4823 57.3288 68.2905C61.1341 65.311 62.0854 57.5642 62.9179 53.1546C61.3719 58.5177 59.7071 65.1918 56.7342 67.3371C55.1883 68.5289 53.2856 69.4823 51.7397 70.5549C44.7236 75.3222 37.7076 79.851 34.4968 91.4115C33.7833 94.3911 34.259 96.5363 34.9725 99.3966C36.7562 106.428 41.5129 114.056 45.5561 118.585L46.2696 119.3C48.0533 121.326 50.3127 122.875 53.0478 123.948C50.5505 123.352 48.2911 122.518 46.1506 121.445Z" fill="#010101"/>
</svg>
